<svg fill="none" height="100%" width="100%" viewBox="0 0 480 480" xmlns:xlink="http://www.w3.org/1999/xlink" xmlns="http://www.w3.org/2000/svg"><defs><linearGradient id="i0" gradientUnits="userSpaceOnUse" spreadMethod="pad" x2="70.082" y2="67.803" x1="-50.07" y1="-91.039"><stop offset="0%" stop-color="#ffea00" /><stop offset="50%" stop-color="#ffe400" /><stop offset="100%" stop-color="#ffdd00" /></linearGradient><linearGradient id="i1" gradientUnits="userSpaceOnUse" spreadMethod="pad" x2="52.76" y2="47.957" x1="-36.176" y1="-68.439"><stop offset="0%" stop-color="#ffea00" /><stop offset="50%" stop-color="#ffe400" /><stop offset="100%" stop-color="#ffdd00" /></linearGradient><filter id="i2"><feColorMatrix values="0 0 0 0 1 0 0 0 0 1 0 0 0 0 1 0 0 0 1 0" type="matrix" /></filter><mask height="20000" width="20000" y="-10000" x="-10000" maskContentUnits="userSpaceOnUse" maskUnits="userSpaceOnUse" style="mask-type: alpha" mask-type="alpha" id="i3"><g filter="url(#i2)" transform="matrix(1,0,0,1,237,247)"><g id="i4"><path fill="#241527" d="M3,-107C-52.228,-107,-97,-62.229,-97,-7C-97,48.228,-52.228,93,3,93C58.228,93,103,48.228,103,-7C103,-62.229,58.228,-107,3,-107ZM3,73C-41.183,73,-77,37.183,-77,-7C-77,-51.183,-41.183,-87,3,-87C47.183,-87,83,-51.183,83,-7C83,37.183,47.183,73,3,73Z" /></g><g id="i5"><path fill="#241527" d="M3,-79.5C-37.041,-79.5,-69.5,-47.041,-69.5,-7C-69.5,33.041,-37.041,65.5,3,65.5C43.041,65.5,75.5,33.041,75.5,-7C75.5,-47.041,43.041,-79.5,3,-79.5Z" /></g></g></mask><filter id="i6"><feColorMatrix values="0 0 0 0 1 0 0 0 0 1 0 0 0 0 1 0 0 0 1 0" type="matrix" /></filter><mask height="20000" width="20000" y="-10000" x="-10000" maskContentUnits="userSpaceOnUse" maskUnits="userSpaceOnUse" style="mask-type: alpha" mask-type="alpha" id="i7"><g filter="url(#i6)" transform="matrix(1,0,0,1,237,247)"><g id="i4"><path fill="#241527" d="M3,-107C-52.228,-107,-97,-62.229,-97,-7C-97,48.228,-52.228,93,3,93C58.228,93,103,48.228,103,-7C103,-62.229,58.228,-107,3,-107ZM3,73C-41.183,73,-77,37.183,-77,-7C-77,-51.183,-41.183,-87,3,-87C47.183,-87,83,-51.183,83,-7C83,37.183,47.183,73,3,73Z" /></g><g id="i5"><path fill="#241527" d="M3,-79.5C-37.041,-79.5,-69.5,-47.041,-69.5,-7C-69.5,33.041,-37.041,65.5,3,65.5C43.041,65.5,75.5,33.041,75.5,-7C75.5,-47.041,43.041,-79.5,3,-79.5Z" /></g></g></mask></defs><g transform="matrix(1,0,0,1,237,247)" id="i8"><g id="i5"><path d="M3,93C3,93,9.375,93,3,93C-56.125,93,-96.812,46.75,-96.812,-7.102C-96.812,-59.25,-57,-107,3,-107C8.5,-107,3,-107,3,-107C3,-107,3,-7.366,3,-7.366C3,-7.366,3,93,3,93Z" fill="#ff9f00"><animate repeatCount="indefinite" attributeName="d" dur="2.55s" begin="0s" calcMode="spline" values="M3,93C3,93,9.375,93,3,93C-56.125,93,-96.812,46.75,-96.812,-7.102C-96.812,-59.25,-57,-107,3,-107C8.5,-107,3,-107,3,-107C3,-107,3,-7.366,3,-7.366C3,-7.366,3,93,3,93Z; M3,93.625C3,93.625,-8.812,93.156,-12,93.156C-39.562,93.156,-86.875,63,-86.875,-7.076C-86.875,-77,-39.562,-107.625,-12,-107.625C-9.25,-107.625,3,-107.625,3,-107.625C3,-107.625,3,-7.37,3,-7.37C3,-7.37,3,93.625,3,93.625Z; M20.19,94.612C20.19,94.612,-13.017,94.629,-13.548,94.629C-20.875,94.629,-32.056,55,-32.056,-7.055C-32.056,-69,-20.875,-108.629,-13.548,-108.629C-13.09,-108.629,20.19,-108.647,20.19,-108.647C20.19,-108.647,20.19,-7.391,20.19,-7.391C20.19,-7.391,20.19,94.612,20.19,94.612Z; M23,94.875C23,94.875,-17,94.875,-17,94.875C-17,94.875,-17,53,-17,-7.051C-17,-67,-17,-108.875,-17,-108.875C-17,-108.875,23,-108.875,23,-108.875C23,-108.875,23,-7.375,23,-7.375C23,-7.375,23,94.875,23,94.875Z; M20.813,94.25C12.25,94.25,-14.188,94.25,-14.188,94.25C-14.188,94.25,-14.188,53,-14.188,-7.051C-14.188,-67,-14.188,-108.25,-14.188,-108.25C-14.188,-108.25,11.875,-108.25,20.813,-108.25C26.125,-108.25,38.312,-77,38.312,-7.313C38.312,63,26.125,94.25,20.813,94.25Z; M22.551,94.023C14.75,94.023,-7.335,94.023,-7.335,94.023C-7.335,94.023,-7.335,53,-7.335,-7.051C-7.335,-67,-7.335,-108.023,-7.335,-108.023C-7.335,-108.023,14.488,-108.023,22.551,-108.023C37.738,-108.023,60.028,-77,60.028,-7.301C60.028,63,37.693,94.023,22.551,94.023Z; M18.179,93.795C11.139,93.795,-5.066,93.795,-5.066,93.795C-5.066,93.795,-5.066,53,-5.066,-7.051C-5.066,-67,-5.066,-107.795,-5.066,-107.795C-5.066,-107.795,10.991,-107.795,18.179,-107.795C43.241,-107.795,82.022,-77,82.022,-7.29C82.022,63,43.151,93.795,18.179,93.795Z; M13.806,92.943C7.528,92.943,-2.797,92.943,-2.797,92.943C-2.797,92.943,-2.797,53,-2.797,-7.051C-2.797,-67,-2.797,-106.943,-2.797,-106.943C-2.797,-106.943,7.494,-106.943,13.806,-106.943C48.744,-106.943,92.944,-71.642,92.944,-7.278C92.944,58,48.607,92.943,13.806,92.943Z; M2.875,93C-1.5,93,2.875,93,2.875,93C2.875,93,2.875,53,2.875,-7.051C2.875,-67,2.875,-107,2.875,-107C2.875,-107,-1.25,-107,2.875,-107C60,-107,102.75,-58.25,102.75,-7.25C102.75,45.5,59.5,93,2.875,93Z; M4.667,93.156C4.667,93.156,7.177,93.156,1.333,93.156C-52.865,93.156,-90.161,47.271,-90.161,-7.097C-90.161,-59.895,-53.667,-107.156,1.333,-107.156C6.375,-107.156,4.667,-107.156,4.667,-107.156C4.667,-107.156,4.667,-7.367,4.667,-7.367C4.667,-7.367,4.667,93.156,4.667,93.156Z; M3.333,93.037C3.333,93.037,-6.614,93.156,-10.333,93.156C-43,93.156,-88.557,55.75,-88.557,-7.08C-88.557,-68.5,-43,-107.156,-10.333,-107.156C-7.125,-107.156,3.333,-107.276,3.333,-107.276C3.333,-107.276,3.333,-7.489,3.333,-7.489C3.333,-7.489,3.333,93.037,3.333,93.037Z; M8.952,93.562C8.952,93.562,-9.582,93.647,-12.238,93.647C-35.571,93.647,-75.612,63,-75.612,-7.072C-75.612,-77,-35.571,-107.647,-12.238,-107.647C-9.946,-107.647,8.952,-107.733,8.952,-107.733C8.952,-107.733,8.952,-7.457,8.952,-7.457C8.952,-7.457,8.952,93.562,8.952,93.562Z; M14.571,94.087C14.571,94.087,-12.549,94.138,-14.143,94.138C-28.143,94.138,-54.667,59,-54.667,-7.064C-54.667,-73,-28.143,-108.138,-14.143,-108.138C-12.768,-108.138,14.571,-108.19,14.571,-108.19C14.571,-108.19,14.571,-7.424,14.571,-7.424C14.571,-7.424,14.571,94.087,14.571,94.087Z; M20.19,94.612C20.19,94.612,-13.017,94.629,-13.548,94.629C-20.875,94.629,-32.056,55,-32.056,-7.055C-32.056,-69,-20.875,-108.629,-13.548,-108.629C-13.09,-108.629,20.19,-108.647,20.19,-108.647C20.19,-108.647,20.19,-7.391,20.19,-7.391C20.19,-7.391,20.19,94.612,20.19,94.612Z; M23,94.875C23,94.875,-17,94.875,-17,94.875C-17,94.875,-17,53,-17,-7.051C-17,-67,-17,-108.875,-17,-108.875C-17,-108.875,23,-108.875,23,-108.875C23,-108.875,23,-7.375,23,-7.375C23,-7.375,23,94.875,23,94.875Z; M20.813,94.25C12.25,94.25,-14.188,94.25,-14.188,94.25C-14.188,94.25,-14.188,53,-14.188,-7.051C-14.188,-67,-14.188,-108.25,-14.188,-108.25C-14.188,-108.25,11.875,-108.25,20.813,-108.25C26.125,-108.25,38.312,-77,38.312,-7.313C38.312,63,26.125,94.25,20.813,94.25Z; M22.551,94.023C14.75,94.023,-7.335,94.023,-7.335,94.023C-7.335,94.023,-7.335,53,-7.335,-7.051C-7.335,-67,-7.335,-108.023,-7.335,-108.023C-7.335,-108.023,14.488,-108.023,22.551,-108.023C37.738,-108.023,60.028,-77,60.028,-7.301C60.028,63,37.693,94.023,22.551,94.023Z; M18.179,93.795C11.139,93.795,-5.066,93.795,-5.066,93.795C-5.066,93.795,-5.066,53,-5.066,-7.051C-5.066,-67,-5.066,-107.795,-5.066,-107.795C-5.066,-107.795,10.991,-107.795,18.179,-107.795C43.241,-107.795,82.022,-77,82.022,-7.29C82.022,63,43.151,93.795,18.179,93.795Z; M13.806,92.943C7.528,92.943,-2.797,92.943,-2.797,92.943C-2.797,92.943,-2.797,53,-2.797,-7.051C-2.797,-67,-2.797,-106.943,-2.797,-106.943C-2.797,-106.943,7.494,-106.943,13.806,-106.943C48.744,-106.943,92.944,-71.642,92.944,-7.278C92.944,58,48.607,92.943,13.806,92.943Z; M2.875,93C-1.5,93,2.875,93,2.875,93C2.875,93,2.875,53,2.875,-7.051C2.875,-67,2.875,-107,2.875,-107C2.875,-107,-1.25,-107,2.875,-107C60,-107,102.75,-58.25,102.75,-7.25C102.75,45.5,59.5,93,2.875,93Z; M4.667,93.156C4.667,93.156,7.177,93.156,1.333,93.156C-52.865,93.156,-90.161,47.271,-90.161,-7.097C-90.161,-59.895,-53.667,-107.156,1.333,-107.156C6.375,-107.156,4.667,-107.156,4.667,-107.156C4.667,-107.156,4.667,-7.367,4.667,-7.367C4.667,-7.367,4.667,93.156,4.667,93.156Z; M3.333,93.037C3.333,93.037,-6.614,93.156,-10.333,93.156C-43,93.156,-88.557,55.75,-88.557,-7.08C-88.557,-68.5,-43,-107.156,-10.333,-107.156C-7.125,-107.156,3.333,-107.276,3.333,-107.276C3.333,-107.276,3.333,-7.489,3.333,-7.489C3.333,-7.489,3.333,93.037,3.333,93.037Z; M8.952,93.562C8.952,93.562,-9.582,93.647,-12.238,93.647C-35.571,93.647,-75.612,63,-75.612,-7.072C-75.612,-77,-35.571,-107.647,-12.238,-107.647C-9.946,-107.647,8.952,-107.733,8.952,-107.733C8.952,-107.733,8.952,-7.457,8.952,-7.457C8.952,-7.457,8.952,93.562,8.952,93.562Z; M14.571,94.087C14.571,94.087,-12.549,94.138,-14.143,94.138C-28.143,94.138,-54.667,59,-54.667,-7.064C-54.667,-73,-28.143,-108.138,-14.143,-108.138C-12.768,-108.138,14.571,-108.19,14.571,-108.19C14.571,-108.19,14.571,-7.424,14.571,-7.424C14.571,-7.424,14.571,94.087,14.571,94.087Z; M20.19,94.612C20.19,94.612,-13.017,94.629,-13.548,94.629C-20.875,94.629,-32.056,55,-32.056,-7.055C-32.056,-69,-20.875,-108.629,-13.548,-108.629C-13.09,-108.629,20.19,-108.647,20.19,-108.647C20.19,-108.647,20.19,-7.391,20.19,-7.391C20.19,-7.391,20.19,94.612,20.19,94.612Z; M23,94.875C23,94.875,-17,94.875,-17,94.875C-17,94.875,-17,53,-17,-7.051C-17,-67,-17,-108.875,-17,-108.875C-17,-108.875,23,-108.875,23,-108.875C23,-108.875,23,-7.375,23,-7.375C23,-7.375,23,94.875,23,94.875Z; M18.625,94.25C7.167,94.25,-13.25,94.25,-13.25,94.25C-13.25,94.25,-13.25,53,-13.25,-7.051C-13.25,-67,-13.25,-108.25,-13.25,-108.25C-13.25,-108.25,12.75,-108.25,18.625,-108.25C25.5,-108.25,37.375,-84.25,37.375,-7.25C37.375,70,25.5,94.25,18.625,94.25Z; M20.5,92.5C18.625,92.5,3.232,92.503,3.232,92.503C3.232,92.503,3.232,52.949,3.232,-7.102C3.232,-67.051,3.232,-106.604,3.232,-106.604C3.232,-106.604,18.732,-106.607,20.5,-106.607C48.5,-106.607,97.893,-77,97.893,-7.25C97.893,63,48.5,92.5,20.5,92.5Z; M2.875,93C-1.5,93,2.875,93,2.875,93C2.875,93,2.875,53,2.875,-7.051C2.875,-67,2.875,-107,2.875,-107C2.875,-107,-1.25,-107,2.875,-107C60,-107,102.75,-58.25,102.75,-7.25C102.75,45.5,59.5,93,2.875,93Z; M2.875,93C-1.5,93,2.875,93,2.875,93C2.875,93,2.875,53,2.875,-7.051C2.875,-67,2.875,-107,2.875,-107C2.875,-107,-1.25,-107,2.875,-107C60,-107,102.75,-58.25,102.75,-7.25C102.75,45.5,59.5,93,2.875,93Z" keyTimes="0; 0.084967; 0.124183; 0.130719; 0.137255; 0.150327; 0.163399; 0.17647; 0.20915; 0.215686; 0.24183; 0.254902; 0.267974; 0.281046; 0.287582; 0.294118; 0.30719; 0.320261; 0.333333; 0.366013; 0.372549; 0.398693; 0.411765; 0.424836; 0.437909; 0.444444; 0.45098; 0.496732; 0.575163; 1" keySplines="0.7 0 0.999 1; 0 0 1 1; 0 0 1 1; 0 0 1 1; 0 0 1 1; 0 0 1 1; 0 0 1 1; 0 0 1 1; 0 0 1 1; 0 0 1 1; 0 0 1 1; 0 0 1 1; 0 0 1 1; 0 0 1 1; 0 0 1 1; 0 0 1 1; 0 0 1 1; 0 0 1 1; 0 0 1 1; 0 0 1 1; 0 0 1 1; 0 0 1 1; 0 0 1 1; 0 0 1 1; 0 0 1 1; 0 0 1 1; 0.167 0.167 0.667 1; 0.001 0 0.3 1; 0 0 1 1" fill="freeze" /></path></g></g><g id="i9"><g transform="translate(240,240)"><animateTransform repeatCount="indefinite" type="translate" attributeName="transform" dur="2.55s" begin="0s" calcMode="spline" values="240 240; 260 240; 221.667 240; 240 240; 260 240; 221.667 240; 240 240; 260 240; 221.633 240; 240 240; 240 240" keyTimes="0; 0.130719; 0.137255; 0.20915; 0.287582; 0.294118; 0.366013; 0.444444; 0.450981; 0.575164; 1" keySplines="0.42 0 0.999 1; 0 0 1 1; 0 0 1 1; 0 0 1 1; 0 0 1 1; 0 0 1 1; 0 0 1 1; 0.167 0.167 0.363 0.974; 0.157 0.26 0.636 1; 0 0 1 1" fill="freeze" /><g transform="scale(1,1) translate(-3,7)"><g id="i5"><path fill="url(#i0)" d="M103,-7C103,48.228,58.228,93,3,93C-52.228,93,-97,48.228,-97,-7C-97,-62.228,-52.228,-107,3,-107C58.228,-107,103,-62.228,103,-7Z" /></g></g></g></g><g id="i9"><g transform="translate(240,240)"><animateTransform repeatCount="indefinite" type="translate" attributeName="transform" dur="2.55s" begin="0s" calcMode="spline" values="240 240; 260 240; 221.667 240; 240 240; 260 240; 221.667 240; 240 240; 260 240; 221.633 240; 240 240; 240 240" keyTimes="0; 0.130719; 0.137255; 0.20915; 0.287582; 0.294118; 0.366013; 0.444444; 0.450981; 0.575164; 1" keySplines="0.42 0 0.999 1; 0 0 1 1; 0 0 1 1; 0 0 1 1; 0 0 1 1; 0 0 1 1; 0 0 1 1; 0.167 0.167 0.363 0.974; 0.157 0.26 0.636 1; 0 0 1 1" fill="freeze" /><g transform="scale(1,1) translate(-3,7)"><g transform="matrix(1,0,0,1,0,0)" id="i10"><g id="i5"><path fill="#ffbc00" d="M83,-7C83,37.183,47.183,73,3,73C-41.183,73,-77,37.183,-77,-7C-77,-51.183,-41.183,-87,3,-87C47.183,-87,83,-51.183,83,-7Z" /></g></g></g></g></g><g id="i9"><g transform="translate(240,240)"><animateTransform repeatCount="indefinite" type="translate" attributeName="transform" dur="2.55s" begin="0s" calcMode="spline" values="240 240; 260 240; 221.667 240; 240 240; 260 240; 221.667 240; 240 240; 260 240; 221.633 240; 240 240; 240 240" keyTimes="0; 0.130719; 0.137255; 0.20915; 0.287582; 0.294118; 0.366013; 0.444444; 0.450981; 0.575164; 1" keySplines="0.42 0 0.999 1; 0 0 1 1; 0 0 1 1; 0 0 1 1; 0 0 1 1; 0 0 1 1; 0 0 1 1; 0.167 0.167 0.363 0.974; 0.157 0.26 0.636 1; 0 0 1 1" fill="freeze" /><g transform="scale(1,1) translate(-3,7)"><g transform="matrix(1,0,0,1,0,0)" id="i11"><g id="i5"><path fill="url(#i1)" d="M75.5,-7C75.5,33.041,43.041,65.5,3,65.5C-37.041,65.5,-69.5,33.041,-69.5,-7C-69.5,-47.041,-37.041,-79.5,3,-79.5C43.041,-79.5,75.5,-47.041,75.5,-7Z" /></g></g></g></g></g><g mask="url(#i3)" opacity="0.5" id="i12"><g transform="translate(120,360)"><animateTransform repeatCount="indefinite" type="translate" attributeName="transform" dur="2.55s" begin="0s" calcMode="spline" values="120 360; 120 360; 350 130; 350 130" keyTimes="0; 0.588235; 0.784314; 1" keySplines="0 0 1 1; 0.3 0 0.7 1; 0 0 1 1" fill="freeze" /><g transform="rotate(-50) scale(1,1.26) translate(-202,7)"><g id="i5"><path fill="#ffffff" d="M242,93C242,93,162,93,162,93C162,93,162,-107,162,-107C162,-107,242,-107,242,-107C242,-107,242,93,242,93Z" /></g></g></g></g><g display="none" transform="matrix(1,0,0,1,237,247)" id="i13"><g id="i4"><path fill="#241527" d="M3,-107C-52.228,-107,-97,-62.229,-97,-7C-97,48.228,-52.228,93,3,93C58.228,93,103,48.228,103,-7C103,-62.229,58.228,-107,3,-107ZM3,73C-41.183,73,-77,37.183,-77,-7C-77,-51.183,-41.183,-87,3,-87C47.183,-87,83,-51.183,83,-7C83,37.183,47.183,73,3,73Z" /></g><g id="i5"><path fill="#241527" d="M3,-79.5C-37.041,-79.5,-69.5,-47.041,-69.5,-7C-69.5,33.041,-37.041,65.5,3,65.5C43.041,65.5,75.5,33.041,75.5,-7C75.5,-47.041,43.041,-79.5,3,-79.5Z" /></g></g><g mask="url(#i7)" opacity="0.5" visibility="hidden" id="i14"><animate repeatCount="indefinite" begin="0s" calcMode="discrete" dur="2.55s" values="hidden; visible; visible" keyTimes="0; 0.111; 1" attributeName="visibility" /><g transform="translate(120,360)"><animateTransform repeatCount="indefinite" type="translate" attributeName="transform" dur="2.55s" begin="0s" calcMode="spline" values="120 360; 120 360; 350 130; 350 130" keyTimes="0; 0.699346; 0.895425; 1" keySplines="0 0 1 1; 0.3 0 0.7 1; 0 0 1 1" fill="freeze" /><g transform="rotate(-50) scale(1,1.26) translate(-202,7)"><g id="i5"><path fill="#ffffff" d="M242,93C242,93,162,93,162,93C162,93,162,-107,162,-107C162,-107,242,-107,242,-107C242,-107,242,93,242,93Z" /></g></g></g></g><g display="none" transform="matrix(1,0,0,1,237,247)" visibility="hidden" id="i15"><animate repeatCount="indefinite" begin="0s" calcMode="discrete" dur="2.55s" values="hidden; visible; visible" keyTimes="0; 0.111; 1" attributeName="visibility" /><g id="i4"><path fill="#241527" d="M3,-107C-52.228,-107,-97,-62.229,-97,-7C-97,48.228,-52.228,93,3,93C58.228,93,103,48.228,103,-7C103,-62.229,58.228,-107,3,-107ZM3,73C-41.183,73,-77,37.183,-77,-7C-77,-51.183,-41.183,-87,3,-87C47.183,-87,83,-51.183,83,-7C83,37.183,47.183,73,3,73Z" /></g><g id="i5"><path fill="#241527" d="M3,-79.5C-37.041,-79.5,-69.5,-47.041,-69.5,-7C-69.5,33.041,-37.041,65.5,3,65.5C43.041,65.5,75.5,33.041,75.5,-7C75.5,-47.041,43.041,-79.5,3,-79.5Z" /></g></g><g visibility="visible" id="i16"><animate repeatCount="indefinite" begin="0s" calcMode="discrete" dur="2.55s" values="visible; hidden; hidden" keyTimes="0; 0.268; 1" attributeName="visibility" /><g transform="translate(242.509,140.25)"><g transform="rotate(0)"><animateTransform repeatCount="indefinite" type="rotate" attributeName="transform" dur="2.55s" begin="0s" calcMode="spline" values="0; 205; 205" keyTimes="0; 0.267974; 1" keySplines="0 0 1 1; 0 0 1 1" fill="freeze" /><g transform="scale(0,0)"><animateTransform repeatCount="indefinite" type="scale" attributeName="transform" dur="2.55s" begin="0s" calcMode="spline" values="0 0; 1.7 1.7; 0 0; 0 0" keyTimes="0; 0.130719; 0.254902; 1" keySplines="0 0 1 1; 0 0 1 1; 0 0 1 1" fill="freeze" /><g transform="translate(2.234,150.75)"><g id="i17" transform="matrix(1,0,0,1,-3,-151)"><path d="M0,-17.117C0,-17.117,2.517,-2.517,2.517,-2.517C2.517,-2.517,17.117,0,17.117,0C17.117,0,2.517,2.517,2.517,2.517C2.517,2.517,0,17.117,0,17.117C0,17.117,-2.517,2.517,-2.517,2.517C-2.517,2.517,-17.117,0,-17.117,0C-17.117,0,-2.517,-2.517,-2.517,-2.517C-2.517,-2.517,0,-17.117,0,-17.117Z" stroke-width="0" stroke="#a9a9a9" fill="#ffffff" /></g></g></g></g></g></g><g visibility="hidden" id="i18"><animate repeatCount="indefinite" begin="0s" calcMode="discrete" dur="2.55s" values="hidden; visible; hidden; hidden" keyTimes="0; 0.052; 0.32; 1" attributeName="visibility" /><g transform="translate(376.509,194.25)"><g transform="rotate(0)"><animateTransform repeatCount="indefinite" type="rotate" attributeName="transform" dur="2.55s" begin="0s" calcMode="spline" values="0; 0; 205; 205" keyTimes="0; 0.052287; 0.320261; 1" keySplines="0 0 1 1; 0 0 1 1; 0 0 1 1" fill="freeze" /><g transform="scale(0,0)"><animateTransform repeatCount="indefinite" type="scale" attributeName="transform" dur="2.55s" begin="0s" calcMode="spline" values="0 0; 0 0; 1.7 1.7; 0 0; 0 0" keyTimes="0; 0.052287; 0.183007; 0.307189; 1" keySplines="0 0 1 1; 0 0 1 1; 0 0 1 1; 0 0 1 1" fill="freeze" /><g transform="translate(2.234,150.75)"><g id="i17" transform="matrix(1,0,0,1,-3,-151)"><path d="M0,-17.117C0,-17.117,2.517,-2.517,2.517,-2.517C2.517,-2.517,17.117,0,17.117,0C17.117,0,2.517,2.517,2.517,2.517C2.517,2.517,0,17.117,0,17.117C0,17.117,-2.517,2.517,-2.517,2.517C-2.517,2.517,-17.117,0,-17.117,0C-17.117,0,-2.517,-2.517,-2.517,-2.517C-2.517,-2.517,0,-17.117,0,-17.117Z" stroke-width="0" stroke="#a9a9a9" fill="#ffe200" /></g></g></g></g></g></g><g visibility="hidden" id="i19"><animate repeatCount="indefinite" begin="0s" calcMode="discrete" dur="2.55s" values="hidden; visible; hidden; hidden" keyTimes="0; 0.229; 0.497; 1" attributeName="visibility" /><g transform="translate(241.509,339.25)"><g transform="rotate(0)"><animateTransform repeatCount="indefinite" type="rotate" attributeName="transform" dur="2.55s" begin="0s" calcMode="spline" values="0; 0; 104; 104" keyTimes="0; 0.228758; 0.490196; 1" keySplines="0 0 1 1; 0 0 1 1; 0 0 1 1" fill="freeze" /><g transform="scale(0,0)"><animateTransform repeatCount="indefinite" type="scale" attributeName="transform" dur="2.55s" begin="0s" calcMode="spline" values="0 0; 0 0; 1 1; 0 0; 0 0" keyTimes="0; 0.228758; 0.356209; 0.48366; 1" keySplines="0 0 1 1; 0 0 1 1; 0 0 1 1; 0 0 1 1" fill="freeze" /><g transform="translate(2.234,150.75)"><g id="i17" transform="matrix(1,0,0,1,-3,-151)"><path d="M0,-17.117C0,-17.117,2.517,-2.517,2.517,-2.517C2.517,-2.517,17.117,0,17.117,0C17.117,0,2.517,2.517,2.517,2.517C2.517,2.517,0,17.117,0,17.117C0,17.117,-2.517,2.517,-2.517,2.517C-2.517,2.517,-17.117,0,-17.117,0C-17.117,0,-2.517,-2.517,-2.517,-2.517C-2.517,-2.517,0,-17.117,0,-17.117Z" stroke-width="0" stroke="#a9a9a9" fill="#ffffff" /></g></g></g></g></g></g><g visibility="hidden" id="i20"><animate repeatCount="indefinite" begin="0s" calcMode="discrete" dur="2.55s" values="hidden; visible; hidden; hidden" keyTimes="0; 0.144; 0.412; 1" attributeName="visibility" /><g transform="translate(134.509,135.25)"><g transform="rotate(0)"><animateTransform repeatCount="indefinite" type="rotate" attributeName="transform" dur="2.55s" begin="0s" calcMode="spline" values="0; 0; 104; 104" keyTimes="0; 0.143791; 0.405229; 1" keySplines="0 0 1 1; 0 0 1 1; 0 0 1 1" fill="freeze" /><g transform="scale(0,0)"><animateTransform repeatCount="indefinite" type="scale" attributeName="transform" dur="2.55s" begin="0s" calcMode="spline" values="0 0; 0 0; 1 1; 0 0; 0 0" keyTimes="0; 0.143791; 0.271242; 0.398693; 1" keySplines="0 0 1 1; 0 0 1 1; 0 0 1 1; 0 0 1 1" fill="freeze" /><g transform="translate(2.234,150.75)"><g id="i17" transform="matrix(1,0,0,1,-3,-151)"><path d="M0,-17.117C0,-17.117,2.517,-2.517,2.517,-2.517C2.517,-2.517,17.117,0,17.117,0C17.117,0,2.517,2.517,2.517,2.517C2.517,2.517,0,17.117,0,17.117C0,17.117,-2.517,2.517,-2.517,2.517C-2.517,2.517,-17.117,0,-17.117,0C-17.117,0,-2.517,-2.517,-2.517,-2.517C-2.517,-2.517,0,-17.117,0,-17.117Z" stroke-width="0" stroke="#a9a9a9" fill="#ffd500" /></g></g></g></g></g></g><g visibility="hidden" id="i21"><animate repeatCount="indefinite" begin="0s" calcMode="discrete" dur="2.55s" values="hidden; visible; hidden; hidden" keyTimes="0; 0.229; 0.497; 1" attributeName="visibility" /><g transform="translate(338.509,380.25)"><g transform="rotate(0)"><animateTransform repeatCount="indefinite" type="rotate" attributeName="transform" dur="2.55s" begin="0s" calcMode="spline" values="0; 0; 104; 104" keyTimes="0; 0.228758; 0.490196; 1" keySplines="0 0 1 1; 0 0 1 1; 0 0 1 1" fill="freeze" /><g transform="scale(0,0)"><animateTransform repeatCount="indefinite" type="scale" attributeName="transform" dur="2.55s" begin="0s" calcMode="spline" values="0 0; 0 0; 1 1; 0 0; 0 0" keyTimes="0; 0.228758; 0.356209; 0.48366; 1" keySplines="0 0 1 1; 0 0 1 1; 0 0 1 1; 0 0 1 1" fill="freeze" /><g transform="translate(2.234,150.75)"><g id="i17" transform="matrix(1,0,0,1,-3,-151)"><path d="M0,-17.117C0,-17.117,2.517,-2.517,2.517,-2.517C2.517,-2.517,17.117,0,17.117,0C17.117,0,2.517,2.517,2.517,2.517C2.517,2.517,0,17.117,0,17.117C0,17.117,-2.517,2.517,-2.517,2.517C-2.517,2.517,-17.117,0,-17.117,0C-17.117,0,-2.517,-2.517,-2.517,-2.517C-2.517,-2.517,0,-17.117,0,-17.117Z" stroke-width="0" stroke="#a9a9a9" fill="#ffd500" /></g></g></g></g></g></g><g visibility="hidden" id="i22"><animate repeatCount="indefinite" begin="0s" calcMode="discrete" dur="2.55s" values="hidden; visible; hidden; hidden" keyTimes="0; 0.32; 0.588; 1" attributeName="visibility" /><g transform="translate(136.509,359.25)"><g transform="rotate(0)"><animateTransform repeatCount="indefinite" type="rotate" attributeName="transform" dur="2.55s" begin="0s" calcMode="spline" values="0; 0; 104; 104" keyTimes="0; 0.320262; 0.5817; 1" keySplines="0 0 1 1; 0 0 1 1; 0 0 1 1" fill="freeze" /><g transform="scale(0,0)"><animateTransform repeatCount="indefinite" type="scale" attributeName="transform" dur="2.55s" begin="0s" calcMode="spline" values="0 0; 0 0; 1 1; 0 0; 0 0" keyTimes="0; 0.320262; 0.447713; 0.575164; 1" keySplines="0 0 1 1; 0 0 1 1; 0 0 1 1; 0 0 1 1" fill="freeze" /><g transform="translate(2.234,150.75)"><g id="i17" transform="matrix(1,0,0,1,-3,-151)"><path d="M0,-17.117C0,-17.117,2.517,-2.517,2.517,-2.517C2.517,-2.517,17.117,0,17.117,0C17.117,0,2.517,2.517,2.517,2.517C2.517,2.517,0,17.117,0,17.117C0,17.117,-2.517,2.517,-2.517,2.517C-2.517,2.517,-17.117,0,-17.117,0C-17.117,0,-2.517,-2.517,-2.517,-2.517C-2.517,-2.517,0,-17.117,0,-17.117Z" stroke-width="0" stroke="#a9a9a9" fill="#ffd500" /></g></g></g></g></g></g></svg>